<svg xmlns="http://www.w3.org/2000/svg" id="Layer_1" viewBox="0 0 112.37 83.14"><defs><style>.cls-1{fill:#c9ea3d;}</style></defs><path class="cls-1" d="M2.09,49.2L21.18,16.14l4.45-7.7C30.01,3.34,36.52.1,43.78.1c1.69,0,3.32.17,4.91.5,1.51.32,2.97.77,4.36,1.36,4.15,1.75,7.71,4.63,10.27,8.26,2.81,3.98,7.28,6.45,12.15,6.45h8.72l-2.32,4.03-9.52,16.49h-3.35c-1.69,0-3.33-.17-4.92-.5-6.8-1.42-12.53-5.72-15.87-11.56-.9-1.58-1.63-3.27-2.16-5.05-.33-1.1-.58-2.24-.75-3.4-.05-.36-.09-.72-.15-.95l-.63,1.09-1.63,2.73-3.45,5.97-6.74,11.68-3.41,5.9-3.53,6.11H2.09Z"></path><path class="cls-1" d="M109.48,33.94l-19.08,33.06-4.45,7.7c-4.39,5.1-10.9,8.34-18.16,8.34-1.69,0-3.32-.17-4.91-.5-1.51-.32-2.97-.77-4.36-1.36-4.15-1.75-7.71-4.63-10.27-8.26-2.81-3.98-7.28-6.45-12.15-6.45h-8.72l2.32-4.03,9.52-16.49h3.35c1.69,0,3.33.17,4.92.5,6.8,1.42,12.53,5.72,15.87,11.56.9,1.58,1.63,3.27,2.16,5.05.33,1.1.58,2.24.75,3.4.05.36.09.72.15.95l.63-1.09,1.63-2.73,3.45-5.97,6.74-11.68,3.41-5.9,3.53-6.11h23.68Z"></path></svg>