<svg xmlns="http://www.w3.org/2000/svg" xmlns:xlink="http://www.w3.org/1999/xlink" id="Layer_1" x="0px" y="0px" viewBox="0 0 471.8 245.6" style="enable-background:new 0 0 471.8 245.6;" xml:space="preserve"><style type="text/css">	.st0{fill:#0AEABF;}	.st1{fill:#753BBD;}</style><g>	<path class="st0" d="M112.1,144.9c-1.4,11.4-7.9,19.7-23.7,19.7s-22.3-8.4-23.7-19.7H42.4c1.9,24.5,19,40.9,46.1,40.9  s43.7-16.4,45.6-40.9H112.1z"></path>	<path class="st1" d="M270.3,0c7.5,0,14.6,5.3,14.6,14.3s-7.1,14.4-14.6,14.4s-14.8-5.5-14.8-14.4S262.8,0,270.3,0z"></path>	<path class="st0" d="M2.5,137.6V46.7h24.4v90.9H2.5z"></path>	<path class="st0" d="M150.8,137.6V51.8l24.2-4.3v13.4c8.2-11.4,20.7-13.4,26.6-13.4c31.9,0,37.5,21.6,37.5,40.5v49.6h-24.4V90.4  c0-13.6-6.6-21.6-19.3-21c-12.1,0.4-20.1,8.7-20.1,22.5v45.8L150.8,137.6L150.8,137.6z"></path>	<path class="st0" d="M257.8,137.6V49.4h24.4v88.3H257.8z"></path>	<path class="st0" d="M310.4,49.4V29l24.2-4.3v24.6h27.7v19.1h-27.7v40.3c0,8,5.9,8.9,16,8.9h13.5V138h-30c-16.2,0-24.1-7.9-24.1-26  V68.4h-13.4V49.4L310.4,49.4L310.4,49.4z"></path>	<path class="st1" d="M14.8,0c7.5,0,14.6,5.3,14.6,14.3s-7.1,14.4-14.6,14.4S0,23.3,0,14.3S7.2,0,14.8,0z"></path>	<path class="st0" d="M136,46.8l3-21h-5.9c-7.7,0-13.9,1.5-18.6,4.4c-2,1.2-3.7,2.8-5.2,4.6c-3.1,3.7-4.9,8.3-5.5,13.1  c-4.7-1.2-9.8-1.8-15.4-1.8c-34.4,0-46.6,22.9-46.6,44.4c0,26.5,18.4,43.7,46.8,43.7s46.3-17.1,46.3-43.7  c0-11.9-3.7-22.7-10.4-30.4c-3-3.4-6.5-6.2-10.5-8.3C121.5,46.7,131.2,46.5,136,46.8L136,46.8z M88.4,112.9  c-15.4,0-23.2-7.6-23.2-22.7s7.8-22.7,23.2-22.7s23.2,7.6,23.2,22.7S103.8,112.9,88.4,112.9z"></path></g><path class="st0" d="M446.5,104.8c-3.1,7.8-10.2,13-23.5,13c-14.4,0-21.5-6.2-24.2-15l72.9-12.9C470.6,68.3,457.3,47,423.1,47 c-36,0-49,23.5-49,46.4c0,27.1,18.5,45.6,49.2,45.6c27.9,0,45.4-15.4,48.2-38.6L446.5,104.8L446.5,104.8z M423.1,68.3 c11.7,0,18.6,4,22.2,10.2L398,87C399.8,76.1,406.7,68.3,423.1,68.3L423.1,68.3z"></path><g>	<path class="st1" d="M228.2,219.2v-60h10.3v10.1c3.6-6.6,6.9-10.1,16.1-10.1h12.2v8.9h-8.1c-13.5,0-19.8,8.2-19.8,20.5v30.6  L228.2,219.2L228.2,219.2z"></path>	<path class="st1" d="M299.7,157.7c20.4,0,31.1,13.3,31.1,31.3s-10.7,31.3-31.1,31.3c-20.4,0-31.2-13.3-31.2-31.3  S279.3,157.7,299.7,157.7L299.7,157.7z M319.8,189.1c0-12-5.3-21.1-20.1-21.1c-14.8,0-20.1,9.2-20.1,21.1c0,12,5.4,21.2,20.1,21.2  C314.4,210.2,319.8,201,319.8,189.1L319.8,189.1z"></path>	<path class="st1" d="M340.1,159.1h10.8v36.4c0,11.8,6.2,15.2,17.5,15.2c13.2,0,18.2-4.5,18.2-15.1v-36.5h10.8v36.4  c0,16.6-9.3,24.9-28.7,24.9s-28.7-8.3-28.7-24.9L340.1,159.1L340.1,159.1z"></path>	<path class="st1" d="M409.6,245.6v-86.5h10.5v9.4c5-6.9,13-10.7,22.1-10.7c17.2,0,29.6,13.3,29.6,31.2s-12.3,31.3-29.5,31.3  c-9.2,0-16.7-3.8-21.9-10.5v35.6H409.6L409.6,245.6z M460.9,189.1c0-12-8.1-21.6-20.1-21.6s-20.4,9.9-20.4,21.6  c0,11.7,7.9,21.8,20.3,21.8C452.9,210.8,460.9,200.9,460.9,189.1L460.9,189.1z"></path></g><path class="st1" d="M181,183.5v9.2h23.6c0.3,5.7-0.9,9.9-3.6,12.8c-3.2,3.5-8.7,5.1-16.7,5.1c-16.2,0-23.5-8-23.5-23.9 c0-10.9,3.2-22.9,23-22.9c13.5,0,21.1,3,21.5,10.2l0,0.5h10.4l0-0.6c-0.7-12.3-12.9-20.3-30.9-20.3c-22.3,0-35.1,12-35.1,33 s12.4,33,34.1,33c9.7,0,17.6-4,22.2-11v10h9.8v-35.2L181,183.5L181,183.5z"></path></svg>