<svg xmlns="http://www.w3.org/2000/svg" id="Layer_1" viewBox="0 0 863.76 83.14"><defs><style>.cls-1{fill:#c9ea3d;}.cls-2{fill:#01281e;}</style></defs><path class="cls-2" d="M201.98,44.55v34.61c0,.79-.48,1.18-1.45,1.18h-9.01c-.97,0-1.45-.39-1.45-1.18v-32.89c0-3.86-.72-6.53-2.17-8-1.45-1.47-4.03-2.2-7.75-2.2-3.08,0-5.78.3-8.1.91-.79.18-1.18.75-1.18,1.72v40.46c0,.79-.48,1.18-1.45,1.18h-9.34c-.79,0-1.18-.39-1.18-1.18v-34.02c0-3.33-.63-5.67-1.88-7.03-1.25-1.36-4.11-2.04-8.59-2.04-3.51,0-6.12.3-7.83.91-1,0-1.5.57-1.5,1.72v40.46c0,.79-.48,1.18-1.45,1.18h-9.01c-.97,0-1.45-.39-1.45-1.18v-46.84c0-2.54,1.36-4.1,4.08-4.67,2.9-.57,5.9-1.05,9.01-1.45,3.11-.39,6.6-.59,10.46-.59,2.72,0,5.25.24,7.59.72,2.34.48,4.28,1.12,5.82,1.91,1.93-.57,4.26-1.15,6.98-1.74,2.72-.59,5.63-.89,8.75-.89,14.74,0,22.11,6.31,22.11,18.94Z"></path><path class="cls-2" d="M206.63,10.8c0-4.69,2.27-7.03,6.81-7.03s6.76,2.34,6.76,7.03-2.25,6.76-6.76,6.76-6.81-2.25-6.81-6.76ZM208.72,80.34c-.79,0-1.18-.39-1.18-1.18v-46.36c0-3.43,1.72-5.15,5.15-5.15h5.15c.79,0,1.18.39,1.18,1.18v50.33c0,.79-.39,1.18-1.18,1.18h-9.12Z"></path><path class="cls-2" d="M254.57,59.57l-14.33-3.97c-5.47-1.47-9.29-3.28-11.46-5.45-2.16-2.16-3.25-5.09-3.25-8.77,0-4.61,1.76-8.45,5.29-11.51,3.52-3.06,9.51-4.59,17.95-4.59,4.4,0,7.76.11,10.09.32,2.32.21,4.27.48,5.85.8,1.14.18,2.11.56,2.9,1.15.79.59,1.07,1.57.86,2.92v4.88c0,.64-.3.97-.91.97-.54,0-1.23-.05-2.07-.16-.84-.11-1.92-.24-3.25-.4-1.32-.16-3-.32-5.04-.48-2.04-.16-4.6-.24-7.67-.24-4.19,0-7.25.38-9.2,1.13-1.95.75-2.92,2.18-2.92,4.29,0,2.4,1.95,4.08,5.85,5.04l14.81,3.92c4.97,1.29,8.59,3.09,10.84,5.39,2.25,2.31,3.38,5.3,3.38,8.99,0,5.37-1.84,9.5-5.53,12.39-3.68,2.9-9.62,4.35-17.81,4.35-4.44,0-8.18-.16-11.24-.48-3.06-.32-5.48-.59-7.27-.8-2.5-.29-3.76-1.64-3.76-4.08l.16-5.21c0-.75.36-1.13,1.07-1.13,1.07,0,3.1.29,6.09.88,2.99.59,7.59.89,13.82.89,4.51,0,7.74-.53,9.69-1.58,1.95-1.05,2.92-2.53,2.92-4.43,0-1.47-.6-2.55-1.8-3.25-1.2-.7-2.55-1.3-4.05-1.8Z"></path><path class="cls-2" d="M288.3,62.85c0,2.75.5,4.71,1.5,5.88,1,1.16,3.45,1.74,7.35,1.74,1.29,0,2.8-.05,4.53-.16,1.73-.11,3.14-.16,4.21-.16.72,0,1.07.38,1.07,1.13v5.21c0,1.18-.23,2-.7,2.47-.47.47-1.29.86-2.47,1.18-1.36.21-2.67.32-3.92.32h-4.45c-6.98,0-11.91-1.42-14.81-4.27-2.9-2.84-4.35-7.32-4.35-13.44V15.68c0-1.79.47-3.16,1.42-4.1.95-.95,2.21-1.42,3.78-1.42h5.58c.82,0,1.23.43,1.23,1.29v14.54h15.35c.86,0,1.29.43,1.29,1.29v6.81c0,.82-.43,1.23-1.29,1.23h-14.06c-.86,0-1.29.48-1.29,1.45v26.08Z"></path><path class="cls-2" d="M328.38,68.21c2.45,1.22,6.22,1.82,11.29,1.82,1.72,0,3.51-.04,5.39-.13,1.88-.09,3.67-.21,5.37-.35,1.7-.14,3.16-.26,4.37-.35,1.22-.09,2.02-.13,2.41-.13.82,0,1.23.47,1.23,1.4l.16,4.83c.11,1.4-.2,2.42-.91,3.08-.72.66-1.74,1.08-3.06,1.26-1.79.21-4.1.37-6.92.46-2.83.09-6.06.13-9.71.13-5.37,0-9.79-.66-13.28-1.99-3.49-1.32-6.24-3.18-8.26-5.58-2.02-2.4-3.43-5.31-4.24-8.75-.8-3.43-1.21-7.32-1.21-11.64,0-5.19.59-9.52,1.77-13.01,1.18-3.49,2.9-6.27,5.15-8.34,2.25-2.07,5.01-3.53,8.26-4.37,3.25-.84,6.99-1.26,11.21-1.26,4.9,0,8.95.47,12.15,1.42,3.2.95,5.72,2.17,7.57,3.67,1.84,1.5,3.11,3.19,3.81,5.07.7,1.88,1.05,3.76,1.05,5.66,0,2.43-.33,4.54-.99,6.33-.66,1.79-1.72,3.3-3.17,4.53s-3.28,2.25-5.5,3.03c-2.22.79-4.88,1.47-8,2.04l-20.77,3.7c.75,3.76,2.35,6.24,4.8,7.46ZM339.68,48.89c2.36-.39,4.23-.82,5.61-1.29,1.38-.46,2.41-.98,3.11-1.56s1.14-1.23,1.34-1.99c.2-.75.3-1.65.3-2.68,0-2.25-.89-3.9-2.68-4.94-1.79-1.04-4.81-1.56-9.07-1.56-3.11,0-5.65.26-7.62.78-1.97.52-3.52,1.39-4.67,2.6-1.15,1.22-1.92,2.79-2.33,4.72-.41,1.93-.62,4.31-.62,7.14v1.72l16.63-2.95Z"></path><path class="cls-2" d="M377.32,80.12h-9.07c-.82,0-1.23-.46-1.23-1.39v-33.32c0-6.72,1.74-11.6,5.23-14.62s8.67-4.53,15.53-4.53c1.61,0,3.23.05,4.86.16,1.63.11,3.09.25,4.37.43,2.15.36,3.22,1.52,3.22,3.49l-.16,4.99c0,.75-.41,1.13-1.23,1.13-.93,0-2.51-.02-4.75-.05-2.24-.04-4.46-.05-6.68-.05-2.9,0-5.07.56-6.52,1.66-1.45,1.11-2.17,3-2.17,5.69v35.04c0,.93-.47,1.39-1.4,1.39Z"></path><path class="cls-2" d="M432.56,59.57l-14.33-3.97c-5.47-1.47-9.29-3.28-11.46-5.45-2.16-2.16-3.25-5.09-3.25-8.77,0-4.61,1.76-8.45,5.29-11.51,3.52-3.06,9.51-4.59,17.95-4.59,4.4,0,7.76.11,10.09.32,2.32.21,4.27.48,5.85.8,1.14.18,2.11.56,2.9,1.15.79.59,1.07,1.57.86,2.92v4.88c0,.64-.3.97-.91.97-.54,0-1.23-.05-2.07-.16-.84-.11-1.92-.24-3.25-.4-1.32-.16-3-.32-5.04-.48-2.04-.16-4.6-.24-7.67-.24-4.19,0-7.25.38-9.2,1.13-1.95.75-2.92,2.18-2.92,4.29,0,2.4,1.95,4.08,5.85,5.04l14.81,3.92c4.97,1.29,8.59,3.09,10.84,5.39,2.25,2.31,3.38,5.3,3.38,8.99,0,5.37-1.84,9.5-5.53,12.39-3.68,2.9-9.62,4.35-17.81,4.35-4.44,0-8.18-.16-11.24-.48-3.06-.32-5.48-.59-7.27-.8-2.5-.29-3.76-1.64-3.76-4.08l.16-5.21c0-.75.36-1.13,1.07-1.13,1.07,0,3.1.29,6.09.88,2.99.59,7.59.89,13.82.89,4.51,0,7.74-.53,9.69-1.58,1.95-1.05,2.92-2.53,2.92-4.43,0-1.47-.6-2.55-1.8-3.25-1.2-.7-2.55-1.3-4.05-1.8Z"></path><path class="cls-2" d="M454.48,61.56V27c0-.86.43-1.29,1.29-1.29h9.28c.82,0,1.23.43,1.23,1.29v32.68c0,4.22.84,7.03,2.52,8.42,1.68,1.4,4.92,2.09,9.71,2.09,3.65,0,6.42-.06,8.32-.19,1.9-.12,3.34-.33,4.32-.62.98-.29,1.48-.86,1.48-1.72V27c0-.86.43-1.29,1.29-1.29h9.07c1,0,1.5.43,1.5,1.29v47c0,2.68-1.34,4.24-4.02,4.67-3.11.68-6.35,1.16-9.71,1.45-3.36.29-7.66.43-12.88.43-8.3,0-14.27-1.48-17.92-4.43-3.65-2.95-5.47-7.81-5.47-14.57Z"></path><path class="cls-2" d="M551.95,30.97c5.62,4.4,8.42,11.5,8.42,21.3s-1.72,16.4-5.15,20.55c-3.9,4.9-11.36,7.35-22.38,7.35-2.93,0-5.99-.12-9.18-.38-3.18-.25-6.62-.73-10.3-1.45-2.68-.5-4.02-1.97-4.02-4.4V8.6c0-3.68,1.72-5.53,5.15-5.53h5.15c.97,0,1.45.5,1.45,1.5v22c1.22-.25,2.81-.44,4.78-.56,1.97-.12,4.42-.19,7.35-.19,8.8,0,15.04,1.72,18.73,5.15ZM521.1,39.08v30.1c1.47.25,3.06.43,4.78.54,1.72.11,3.67.16,5.85.16,6.87,0,11.29-.97,13.25-2.9,2.43-2.22,3.65-7.12,3.65-14.7,0-5.62-.98-9.66-2.95-12.13-2.18-2.93-6.58-4.4-13.2-4.4-5.15,0-8.46.38-9.93,1.13-.97.25-1.45.98-1.45,2.2Z"></path><path class="cls-2" d="M593.78,59.57l-14.33-3.97c-5.47-1.47-9.29-3.28-11.46-5.45-2.16-2.16-3.25-5.09-3.25-8.77,0-4.61,1.76-8.45,5.29-11.51,3.52-3.06,9.51-4.59,17.95-4.59,4.4,0,7.76.11,10.09.32,2.32.21,4.27.48,5.85.8,1.14.18,2.11.56,2.9,1.15.79.59,1.07,1.57.86,2.92v4.88c0,.64-.3.97-.91.97-.54,0-1.23-.05-2.07-.16-.84-.11-1.92-.24-3.25-.4-1.32-.16-3-.32-5.04-.48s-4.6-.24-7.67-.24c-4.19,0-7.25.38-9.2,1.13-1.95.75-2.92,2.18-2.92,4.29,0,2.4,1.95,4.08,5.85,5.04l14.81,3.92c4.97,1.29,8.59,3.09,10.84,5.39,2.25,2.31,3.38,5.3,3.38,8.99,0,5.37-1.84,9.5-5.53,12.39-3.69,2.9-9.62,4.35-17.81,4.35-4.44,0-8.18-.16-11.24-.48-3.06-.32-5.48-.59-7.27-.8-2.5-.29-3.76-1.64-3.76-4.08l.16-5.21c0-.75.36-1.13,1.07-1.13,1.07,0,3.1.29,6.09.88,2.99.59,7.59.89,13.82.89,4.51,0,7.74-.53,9.69-1.58,1.95-1.05,2.92-2.53,2.92-4.43,0-1.47-.6-2.55-1.8-3.25-1.2-.7-2.55-1.3-4.05-1.8Z"></path><path class="cls-2" d="M616.19,10.8c0-4.69,2.27-7.03,6.81-7.03s6.76,2.34,6.76,7.03-2.25,6.76-6.76,6.76-6.81-2.25-6.81-6.76ZM618.28,80.34c-.79,0-1.18-.39-1.18-1.18v-46.36c0-3.43,1.72-5.15,5.15-5.15h5.15c.79,0,1.18.39,1.18,1.18v50.33c0,.79-.39,1.18-1.18,1.18h-9.12Z"></path><path class="cls-2" d="M661.98,26.2c2.83,0,5.32.04,7.49.13,2.16.09,3.76.22,4.8.4V4.89c0-.86.41-1.29,1.23-1.29h5.1c3.4,0,5.1,1.79,5.1,5.37v65.19c0,2.47-1.27,3.97-3.81,4.51-3,.5-5.9.91-8.69,1.23-2.79.32-6.3.48-10.52.48-5.83,0-10.56-.63-14.19-1.91-3.63-1.27-6.43-3.1-8.4-5.5-1.97-2.4-3.28-5.31-3.94-8.75-.66-3.43-.99-7.28-.99-11.54,0-5.44.75-9.87,2.25-13.31,1.5-3.43,3.48-6.14,5.93-8.13,2.45-1.99,5.29-3.33,8.53-4.02,3.24-.7,6.61-1.05,10.11-1.05ZM672.82,37.2c-.93-.29-2.32-.5-4.16-.64-1.84-.14-3.78-.21-5.82-.21-3.4,0-6.14.33-8.21.99-2.08.66-3.7,1.67-4.88,3.03-1.18,1.36-1.96,3.06-2.33,5.1s-.56,4.42-.56,7.14c0,3.86.29,6.95.86,9.26.57,2.31,1.49,4.1,2.76,5.37,1.27,1.27,2.96,2.11,5.07,2.52,2.11.41,4.72.62,7.83.62,2.18,0,4.33-.09,6.44-.27,2.11-.18,3.6-.38,4.45-.59v-30.16c0-.79-.12-1.3-.35-1.53-.23-.23-.6-.44-1.1-.62Z"></path><path class="cls-2" d="M691.47,10.8c0-4.69,2.27-7.03,6.81-7.03s6.76,2.34,6.76,7.03-2.25,6.76-6.76,6.76-6.81-2.25-6.81-6.76ZM693.56,80.34c-.79,0-1.18-.39-1.18-1.18v-46.36c0-3.43,1.72-5.15,5.15-5.15h5.15c.79,0,1.18.39,1.18,1.18v50.33c0,.79-.39,1.18-1.18,1.18h-9.12Z"></path><path class="cls-2" d="M727.91,68.21c2.45,1.22,6.21,1.82,11.29,1.82,1.72,0,3.51-.04,5.39-.13,1.88-.09,3.67-.21,5.37-.35,1.7-.14,3.16-.26,4.37-.35,1.22-.09,2.02-.13,2.41-.13.82,0,1.23.47,1.23,1.4l.16,4.83c.11,1.4-.2,2.42-.91,3.08-.72.66-1.74,1.08-3.06,1.26-1.79.21-4.1.37-6.92.46-2.83.09-6.06.13-9.71.13-5.37,0-9.79-.66-13.28-1.99-3.49-1.32-6.24-3.18-8.26-5.58-2.02-2.4-3.43-5.31-4.24-8.75-.8-3.43-1.21-7.32-1.21-11.64,0-5.19.59-9.52,1.77-13.01s2.9-6.27,5.15-8.34c2.25-2.07,5.01-3.53,8.26-4.37,3.25-.84,6.99-1.26,11.21-1.26,4.9,0,8.95.47,12.15,1.42,3.2.95,5.72,2.17,7.57,3.67,1.84,1.5,3.11,3.19,3.81,5.07.7,1.88,1.05,3.76,1.05,5.66,0,2.43-.33,4.54-.99,6.33-.66,1.79-1.72,3.3-3.17,4.53s-3.28,2.25-5.5,3.03c-2.22.79-4.88,1.47-8,2.04l-20.77,3.7c.75,3.76,2.35,6.24,4.8,7.46ZM739.2,48.89c2.36-.39,4.23-.82,5.61-1.29,1.38-.46,2.42-.98,3.11-1.56.7-.57,1.14-1.23,1.34-1.99.2-.75.3-1.65.3-2.68,0-2.25-.89-3.9-2.68-4.94-1.79-1.04-4.81-1.56-9.07-1.56-3.11,0-5.65.26-7.62.78-1.97.52-3.52,1.39-4.67,2.6-1.15,1.22-1.92,2.79-2.33,4.72-.41,1.93-.62,4.31-.62,7.14v1.72l16.63-2.95Z"></path><path class="cls-2" d="M781.14,73.09c0,5.33-2.56,8-7.67,8s-7.57-2.66-7.57-8,2.52-7.67,7.57-7.67,7.67,2.56,7.67,7.67Z"></path><path class="cls-2" d="M837.4,44.76v34.56c0,.86-.43,1.29-1.29,1.29h-9.28c-.86,0-1.29-.43-1.29-1.29v-32.68c0-4.22-.84-7.03-2.52-8.42-1.68-1.4-4.92-2.09-9.71-2.09-3.65,0-6.42.06-8.32.19-1.9.13-3.34.33-4.32.62-.98.29-1.48.86-1.48,1.72v40.67c0,.86-.41,1.29-1.23,1.29h-9.07c-1,0-1.5-.43-1.5-1.29v-47c0-2.68,1.34-4.24,4.02-4.67,3.08-.68,6.31-1.16,9.69-1.45s7.66-.43,12.85-.43c8.3,0,14.28,1.48,17.95,4.43,3.67,2.95,5.5,7.81,5.5,14.57Z"></path><path class="cls-2" d="M853.04,80.18h-10.19c-.82,0-1.23-.48-1.23-1.45V9.08c0-4.08,1.84-6.12,5.53-6.12h5.9c.93,0,1.4.48,1.4,1.45v74.32c0,.97-.46,1.45-1.4,1.45Z"></path><path class="cls-1" d="M38.28,37.19l6.74-11.68,3.45-5.97,1.63-2.73.63-1.09c.06.23.1.59.15.95.17,1.16.42,2.3.75,3.4.52,1.78,1.26,3.47,2.16,5.05,3.34,5.84,9.08,10.14,15.87,11.56,1.58.33,3.23.5,4.92.5h3.35l9.52-16.49,2.32-4.03h-8.72c-4.87,0-9.34-2.48-12.15-6.45-2.57-3.63-6.12-6.51-10.27-8.26-1.39-.58-2.85-1.04-4.36-1.36-1.58-.33-3.22-.5-4.91-.5-7.26,0-13.77,3.24-18.16,8.34l-4.44,7.7L7.66,49.2h23.68l3.53-6.11,3.41-5.9Z"></path><path class="cls-1" d="M91.36,33.94l-3.53,6.11-3.41,5.9-6.74,11.68-3.45,5.97-1.63,2.73-.63,1.09c-.06-.23-.1-.59-.15-.95-.17-1.16-.42-2.3-.75-3.4-.52-1.78-1.26-3.47-2.16-5.05-3.34-5.84-9.08-10.14-15.87-11.56-1.58-.33-3.23-.5-4.92-.5h-3.35l-9.52,16.49-2.32,4.03h8.72c4.87,0,9.34,2.48,12.15,6.45,2.57,3.63,6.12,6.51,10.27,8.26,1.39.58,2.85,1.04,4.36,1.36,1.58.33,3.22.5,4.91.5,7.26,0,13.77-3.24,18.16-8.34l4.44-7.7,19.08-33.06h-23.68Z"></path></svg>